<?xml version="1.0" standalone="no"?>
<!DOCTYPE svg PUBLIC "-//W3C//DTD SVG 1.0//EN" "http://www.w3.org/TR/2001/REC-SVG-20010904/DTD/svg10.dtd">
<svg xmlns="http://www.w3.org/2000/svg" xmlns:xlink="http://www.w3.org/1999/xlink" id="body_1" width="24" height="24" transform="matrix(-1, 0, 0, 1, 0, 0)rotate(0)">

<g transform="matrix(0.041666668 0 0 0.041666668 -0 1.3333334)">
	<g>
	</g>
	<g>
	</g>
	<g>
        <path d="M275.3 250.5C 282.3 257.9 293.69998 257.9 300.8 250.5L300.8 250.5L409.69998 136.3C 441.3 103.100006 439.49997 48.100006 404.09998 17.5C 373.3 -9.200001 327.39996 -4.3999996 299.19998 25.2L299.19998 25.2L288 36.9L276.9 25.300001C 248.7 -4.4 202.8 -9.2 172 17.5C 136.7 48.1 134.8 103.1 166.4 136.3L166.4 136.3L275.3 250.5zM565.3 328.1C 553.5 317.4 535.1 318.1 522.7 328.1L522.7 328.1L430.3 402C 419 411.1 404.9 416 390.3 416L390.3 416L272 416C 263.2 416 256 408.8 256 400C 256 391.2 263.2 384 272 384L272 384L350.3 384C 366.19998 384 381 373.1 383.59998 357.4C 386.89996 337.4 371.49997 320 351.99997 320L351.99997 320L192 320C 165 320 138.9 329.3 117.9 346.3L117.9 346.3L71.4 384L16 384C 7.2 384 0 391.2 0 400L0 400L0 496C 0 504.8 7.2 512 16 512L16 512L372.8 512C 387.3 512 401.4 507.1 412.8 498L412.8 498L564 377C 579.2 364.9 580.4 341.7 565.3 328.1z" stroke="#FFFFFF" stroke-width="35" fill="#000000" fill-rule="nonzero" />
	</g>
</g>
</svg>